<svg width="173" height="29" viewBox="0 0 173 29" fill="none" xmlns="http://www.w3.org/2000/svg">
<path d="M7.36121 18.75L0 6H14.7224L7.36121 18.75Z" fill="#76F524"/>
<path d="M7.36121 23.75L0 11H14.7224L7.36121 23.75Z" fill="#F8F15E"/>
<path d="M34.872 6.2H39.504V23H35.424V11.912L31.224 18.32H30.84L26.64 11.912V23H22.56V6.2H27.192L31.032 11.96L34.872 6.2ZM44.1557 11.48C45.4997 10.152 47.1317 9.488 49.0517 9.488C50.9717 9.488 52.6037 10.152 53.9477 11.48C55.2917 12.792 55.9637 14.432 55.9637 16.4C55.9637 18.384 55.2997 20.032 53.9717 21.344C52.6437 22.656 51.0037 23.312 49.0517 23.312C47.1157 23.312 45.4757 22.656 44.1317 21.344C42.8037 20.016 42.1397 18.368 42.1397 16.4C42.1397 14.432 42.8117 12.792 44.1557 11.48ZM51.0437 14.216C50.5157 13.656 49.8517 13.376 49.0517 13.376C48.2517 13.376 47.5877 13.656 47.0597 14.216C46.5317 14.776 46.2677 15.504 46.2677 16.4C46.2677 17.312 46.5317 18.048 47.0597 18.608C47.5877 19.152 48.2517 19.424 49.0517 19.424C49.8517 19.424 50.5157 19.152 51.0437 18.608C51.5717 18.048 51.8357 17.312 51.8357 16.4C51.8357 15.504 51.5717 14.776 51.0437 14.216ZM66.0977 9.488C67.7617 9.488 69.1617 10.136 70.2977 11.432C71.4497 12.728 72.0257 14.384 72.0257 16.4C72.0257 18.416 71.4577 20.072 70.3217 21.368C69.1857 22.664 67.7697 23.312 66.0737 23.312C64.5377 23.312 63.2897 22.736 62.3297 21.584V29H58.2497V9.8H62.3297V11.288C63.2577 10.088 64.5137 9.488 66.0977 9.488ZM63.1217 18.608C63.6497 19.152 64.3137 19.424 65.1137 19.424C65.9137 19.424 66.5777 19.152 67.1057 18.608C67.6337 18.048 67.8977 17.312 67.8977 16.4C67.8977 15.504 67.6337 14.776 67.1057 14.216C66.5777 13.656 65.9137 13.376 65.1137 13.376C64.3137 13.376 63.6497 13.656 63.1217 14.216C62.5937 14.776 62.3297 15.504 62.3297 16.4C62.3297 17.312 62.5937 18.048 63.1217 18.608ZM75.9604 11.48C77.3044 10.152 78.9364 9.488 80.8564 9.488C82.7764 9.488 84.4084 10.152 85.7524 11.48C87.0964 12.792 87.7684 14.432 87.7684 16.4C87.7684 18.384 87.1044 20.032 85.7764 21.344C84.4484 22.656 82.8084 23.312 80.8564 23.312C78.9204 23.312 77.2804 22.656 75.9364 21.344C74.6084 20.016 73.9444 18.368 73.9444 16.4C73.9444 14.432 74.6164 12.792 75.9604 11.48ZM82.8484 14.216C82.3204 13.656 81.6564 13.376 80.8564 13.376C80.0564 13.376 79.3924 13.656 78.8644 14.216C78.3364 14.776 78.0724 15.504 78.0724 16.4C78.0724 17.312 78.3364 18.048 78.8644 18.608C79.3924 19.152 80.0564 19.424 80.8564 19.424C81.6564 19.424 82.3204 19.152 82.8484 18.608C83.3764 18.048 83.6404 17.312 83.6404 16.4C83.6404 15.504 83.3764 14.776 82.8484 14.216ZM111.497 23H106.337L101.681 17.576V23H97.6007V17.576L92.9447 23H87.7847L93.7367 16.088L88.0967 9.8H93.2567L97.6007 15.056V9.8H101.681V15.056L106.025 9.8H111.185L105.545 16.088L111.497 23ZM118.475 9.488C120.635 9.488 122.363 10.24 123.659 11.744C124.955 13.232 125.499 15.072 125.291 17.264H115.667C115.763 18.224 116.075 18.952 116.603 19.448C117.147 19.928 117.803 20.168 118.571 20.168C119.131 20.168 119.619 20.04 120.035 19.784C120.451 19.512 120.739 19.144 120.899 18.68H125.099C124.667 20.232 123.851 21.392 122.651 22.16C121.467 22.928 120.107 23.312 118.571 23.312C116.491 23.312 114.795 22.656 113.483 21.344C112.171 20.032 111.515 18.384 111.515 16.4C111.515 14.432 112.163 12.792 113.459 11.48C114.771 10.152 116.443 9.488 118.475 9.488ZM118.451 12.632C117.059 12.632 116.171 13.352 115.787 14.792H121.043C120.899 14.136 120.603 13.616 120.155 13.232C119.723 12.832 119.155 12.632 118.451 12.632ZM136.27 9.8H140.35V23H136.27V18.224H131.35V23H127.27V9.8H131.35V14.384H136.27V9.8ZM144.515 11.48C145.859 10.152 147.491 9.488 149.411 9.488C151.331 9.488 152.963 10.152 154.307 11.48C155.651 12.792 156.323 14.432 156.323 16.4C156.323 18.384 155.659 20.032 154.331 21.344C153.003 22.656 151.363 23.312 149.411 23.312C147.475 23.312 145.835 22.656 144.491 21.344C143.163 20.016 142.499 18.368 142.499 16.4C142.499 14.432 143.171 12.792 144.515 11.48ZM151.403 14.216C150.875 13.656 150.211 13.376 149.411 13.376C148.611 13.376 147.947 13.656 147.419 14.216C146.891 14.776 146.627 15.504 146.627 16.4C146.627 17.312 146.891 18.048 147.419 18.608C147.947 19.152 148.611 19.424 149.411 19.424C150.211 19.424 150.875 19.152 151.403 18.608C151.931 18.048 152.195 17.312 152.195 16.4C152.195 15.504 151.931 14.776 151.403 14.216ZM165.209 9.488C167.369 9.488 169.097 10.24 170.393 11.744C171.689 13.232 172.233 15.072 172.025 17.264H162.401C162.497 18.224 162.809 18.952 163.337 19.448C163.881 19.928 164.537 20.168 165.305 20.168C165.865 20.168 166.353 20.04 166.769 19.784C167.185 19.512 167.473 19.144 167.633 18.68H171.833C171.401 20.232 170.585 21.392 169.385 22.16C168.201 22.928 166.841 23.312 165.305 23.312C163.225 23.312 161.529 22.656 160.217 21.344C158.905 20.032 158.249 18.384 158.249 16.4C158.249 14.432 158.897 12.792 160.193 11.48C161.505 10.152 163.177 9.488 165.209 9.488ZM165.185 12.632C163.793 12.632 162.905 13.352 162.521 14.792H167.777C167.633 14.136 167.337 13.616 166.889 13.232C166.457 12.832 165.889 12.632 165.185 12.632Z" fill="black"/>
</svg>
